#!OML:ASF Y:\EmotionMaleHayes\Project 1\Capture day 1\Session 1\Male1.ASF
:FULLY-SPECIFIED
:DEGREES
1304
root 12.8281 16.6216 5.68057 -361.169 -151.832 -364.3
lowerback 9.92624 0.174344 -5.41929
upperback 2.6607 -0.430898 1.48797
thorax -2.74264 -0.267891 4.66543
lowerneck -22.1671 5.64894 6.26961
upperneck 26.7063 5.76194 -1.55481
head 12.8537 2.79767 -0.67757
rclavicle -4.37326e-015 -7.95139e-015
rhumerus -43.8955 -3.95463 -79.3815
rradius 32.8522
rwrist -2.57781
rhand -9.93367 -33.4766
rfingers 7.12502
rthumb 16.0475 -62.8321
lclavicle -4.37326e-015 -7.95139e-015
lhumerus -30.4473 -14.7281 85.7227
lradius 46.0699
lwrist -8.98901
lhand -18.0873 -29.8338
lfingers 7.12502
lthumb 8.18611 -0.0124182
rfemur -13.5615 -2.98796 21.5309
rtibia 20.9192
rfoot -12.5318 -6.74093
rtoes 34.7313
lfemur 15.9511 3.88751 -19.0415
ltibia 42.8059
lfoot 5.53902 0.771368
ltoes -4.48591
1305
root 12.7532 16.642 5.54788 -361.809 -152.1 -363.17
lowerback 10.0401 0.253481 -4.28552
upperback 2.64872 -0.214223 1.67874
thorax -2.84972 -0.162823 4.1965
lowerneck -22.3124 5.65361 6.64657
upperneck 27.1285 5.71652 -1.92537
head 13.0823 2.75471 -0.888037
rclavicle 4.67144e-014 7.95139e-016
rhumerus -43.1983 -3.23374 -80.3084
rradius 33.7436
rwrist -3.40082
rhand -10.0003 -33.586
rfingers 7.12502
rthumb 15.9833 -62.9466
lclavicle 4.67144e-014 7.95139e-016
lhumerus -30.9601 -14.4853 86.4788
lradius 44.4661
lwrist -11.2259
lhand -17.2829 -29.7527
lfingers 7.12502
lthumb 8.96239 0.0369522
rfemur -12.6756 -4.50096 22.9718
rtibia 20.4107
rfoot -11.7092 -6.72899
rtoes 22.7324
lfemur 14.7269 4.00009 -17.7626
ltibia 45.0673
lfoot 6.57122 0.931598
ltoes -3.93013
1306
root 12.6911 16.6613 5.42201 -362.494 -152.254 -361.764
lowerback 10.1855 0.272982 -3.07095
upperback 2.65097 -0.0685244 1.98406
thorax -2.94539 -0.0979233 3.81
lowerneck -22.3149 5.64504 6.61407
upperneck 27.1474 5.64271 -1.70556
head 13.0784 2.74947 -0.810665
rclavicle -4.37326e-015 -1.59028e-015
rhumerus -42.3286 -2.7596 -80.9808
rradius 34.528
rwrist -3.66335
rhand -9.66138 -33.1959
rfingers 7.12502
rthumb 16.3097 -62.53
lclavicle -4.37326e-015 -1.59028e-015
lhumerus -31.5591 -14.2023 87.1182
lradius 43.3506
lwrist -12.602
lhand -16.3367 -29.332
lfingers 7.12502
lthumb 9.87535 0.416386
rfemur -11.4661 -3.44317 24.1682
rtibia 19.6179
rfoot -13.0919 -6.05
rtoes 33.8595
lfemur 13.2031 4.17306 -16.0611
ltibia 47.5373
lfoot 6.69721 0.672441
ltoes -5.97316
1307
root 12.6358 16.6843 5.30677 -363.343 -152.144 -360.292
lowerback 10.7142 0.202615 -1.87566
upperback 2.60378 -0.0486314 2.40271
thorax -3.28906 -0.0963108 3.57332
lowerneck -22.4051 5.68347 6.60494
upperneck 27.3058 5.69599 -1.72233
head 13.1649 2.76631 -0.803861
rclavicle -9.54166e-015 5.56597e-015
rhumerus -41.5582 -2.03322 -81.4825
rradius 35.4284
rwrist -3.9337
rhand -9.20504 -32.6082
rfingers 7.12502
rthumb 16.7491 -61.9057
lclavicle -9.54166e-015 5.56597e-015
lhumerus -32.2872 -13.5121 87.7367
lradius 42.4954
lwrist -14.0614
lhand -15.1013 -28.893
lfingers 7.12502
lthumb 11.0671 0.795196
rfemur -10.4529 -4.53465 25.7538
rtibia 19.012
rfoot -12.9002 -5.82885
rtoes 29.0642
lfemur 11.6382 3.79663 -14.4129
ltibia 50.0815
lfoot 6.07455 0.505921
ltoes -5.83714
1308
root 12.539 16.7075 5.16577 -364.009 -153.011 -359.042
lowerback 10.5152 0.400112 -0.597516
upperback 2.71763 0.337454 2.68661
thorax -3.08403 0.07452 3.09235
lowerneck -22.4358 5.70472 6.68891
upperneck 27.381 5.71785 -1.80877
head 13.2098 2.771 -0.846656
rclavicle 1.97791e-014 -7.95139e-015
rhumerus -40.734 -1.10192 -82.0964
rradius 36.3911
rwrist -4.37368
rhand -9.14694 -32.4468
rfingers 7.12502
rthumb 16.805 -61.7395
lclavicle 1.97791e-014 -7.95139e-015
lhumerus -32.7625 -13.0064 88.3418
lradius 41.049
lwrist -15.2243
lhand -14.2959 -28.8761
lfingers 7.12502
lthumb 11.8438 0.768956
rfemur -9.397 -4.77461 27.0675
rtibia 18.4725
rfoot -12.9613 -5.05707
rtoes 26.5892
lfemur 10.535 4.50557 -13.0736
ltibia 51.9095
lfoot 5.1917 0.302367
ltoes -9.97263
1309
root 12.4748 16.7281 5.04299 -364.331 -153.277 -358.158
lowerback 10.4021 0.435596 0.156328
upperback 2.77982 0.45147 2.88005
thorax -2.95872 0.119089 2.85231
lowerneck -22.425 5.7214 6.85098
upperneck 27.3394 5.71421 -1.907
head 13.2005 2.77389 -0.912319
rclavicle -3.77691e-014 -5.56597e-015
rhumerus -39.8169 0.218424 -82.9785
rradius 37.4631
rwrist -5.24091
rhand -9.74352 -32.7443
rfingers 7.12502
rthumb 16.2306 -62.0849
lclavicle -3.77691e-014 -5.56597e-015
lhumerus -33.039 -13.1929 88.9457
lradius 39.3077
lwrist -15.4717
lhand -13.8916 -28.6672
lfingers 7.12502
lthumb 12.2337 0.955007
rfemur -8.63048 -5.07583 28.0338
rtibia 17.8939
rfoot -13.0672 -4.814
rtoes 24.3536
lfemur 8.79677 4.78542 -12.0484
ltibia 53.9249
lfoot 4.26012 0.0599912
ltoes -10.4624
